<?xml version="1.0" encoding="UTF-8" standalone="no"?>
<svg
   xmlns:dc="http://purl.org/dc/elements/1.1/"
   xmlns:cc="http://creativecommons.org/ns#"
   xmlns:rdf="http://www.w3.org/1999/02/22-rdf-syntax-ns#"
   xmlns:svg="http://www.w3.org/2000/svg"
   xmlns="http://www.w3.org/2000/svg"
   xmlns:sodipodi="http://sodipodi.sourceforge.net/DTD/sodipodi-0.dtd"
   xmlns:inkscape="http://www.inkscape.org/namespaces/inkscape"
   width="300mm"
   height="300mm"
   viewBox="0 0 300 300"
   version="1.1"
   id="svg8"
   inkscape:version="1.0.2-2 (e86c870879, 2021-01-15)"
   sodipodi:docname="footwearsvg.svg">
  <defs
     id="defs2">
    <rect
       x="96.005952"
       y="210.91071"
       width="105.07738"
       height="29.482143"
       id="rect39" />
  </defs>
  <sodipodi:namedview
     id="base"
     pagecolor="#ffffff"
     bordercolor="#666666"
     borderopacity="1.0"
     inkscape:pageopacity="0.0"
     inkscape:pageshadow="2"
     inkscape:zoom="0.35"
     inkscape:cx="400"
     inkscape:cy="560"
     inkscape:document-units="px"
     inkscape:current-layer="layer1"
     inkscape:document-rotation="0"
     showgrid="false"
     inkscape:window-width="1920"
     inkscape:window-height="1001"
     inkscape:window-x="-9"
     inkscape:window-y="-9"
     inkscape:window-maximized="1" />
  <metadata
     id="metadata5">
    <rdf:RDF>
      <cc:Work
         rdf:about="">
        <dc:format>image/svg+xml</dc:format>
        <dc:type
           rdf:resource="http://purl.org/dc/dcmitype/StillImage" />
        <dc:title></dc:title>
      </cc:Work>
    </rdf:RDF>
  </metadata>
  <g
     inkscape:label="Layer 1"
     inkscape:groupmode="layer"
     id="layer1">
    <g
       id="g27"
       transform="matrix(0.30010644,-0.0015349,0.00173606,0.30694955,49.371663,7.7350681)">
      <rect
         width="682.66669"
         height="682"
         fill="#ffffff"
         shape="square"
         id="rect10"
         x="0"
         y="0" />
      <g
         transform="matrix(-0.7,0,0,0.7,554,104.37773)"
         id="g14">
        <path
           d="m 567.72656,322.68359 c -3.66406,-0.70703 -6.59375,-1.0625 -6.59375,-1.0625 -50.90234,-2 -99.92969,-18.35547 -141.79687,-47.29687 -41.90625,-28.97266 -74.44532,-69.06641 -94.10157,-115.94531 -14.125,-33.69922 -21.28906,-63.457035 -21.28906,-88.453129 V -4.167969 H 47.914062 V 237.80469 L 17.285156,318.42187 C 5.816406,348.61328 0,380.28516 0,412.57812 c 0,47.21094 38.414062,85.61719 85.621094,85.61719 H 186.64453 l 4.39063,-12.5664 C 195.03125,474.1875 207.63281,468 219.12109,471.83594 l 84.55469,28.18359 248.10547,-1.42187 C 600.42578,498.32031 640,458.51562 640,409.87109 c 0,-42.53515 -30.40625,-79.14453 -72.27344,-87.1875 z M 398.00781,305.16797 c 6.13672,4.23828 12.40625,8.23828 18.79688,12.0039 -30.04688,5.89454 -61.02344,5.02344 -91.32813,-2.73437 -44.07812,-11.28516 -82.41015,-36.03516 -110.83203,-71.56641 l -5.62891,-7.03906 H 85.414062 V 127.11328 c 30.859378,8.57031 59.113278,12.86719 87.355468,12.86719 32.33984,0 64.6875,-5.63672 100.94922,-16.86719 4.01172,15.77734 9.64844,32.38672 16.9375,49.76563 22.42578,53.49218 59.54687,99.23828 107.35156,132.28906 z M 266.44531,33.332031 v 36.59375 c 0,5.171875 0.25781,10.492188 0.74219,15.9375 C 200.51172,107.24609 150.91406,107.98047 85.414062,88.074219 V 33.332031 Z m 285.1211,427.765629 -241.91016,1.38672 -78.67969,-26.22657 c -6.1914,-2.0664 -12.5,-3.04687 -18.71484,-3.04687 -20.20703,0 -39.45313,10.34765 -50.5,27.48437 H 85.621094 C 59.085938,460.69531 37.5,439.10938 37.5,412.57813 c 0,-27.72266 4.992188,-54.91797 14.839844,-80.83594 L 74.53125,273.33203 h 116.67187 c 32.87891,38.17578 75.90625,64.87109 124.97266,77.43359 20.25,5.1836 40.74219,7.76172 61.16016,7.76172 30.6914,0 61.1875,-5.84765 90.32031,-17.42968 28.92187,10.47265 59.39844,16.5625 90.51172,17.93359 0.85156,0.16797 1.6914,0.32812 2.53125,0.48828 24.21875,4.62109 41.80078,25.79688 41.80078,50.35156 0,28.08594 -22.84766,51.06641 -50.93359,51.22657 z m 0,0"
           fill="#ff7300"
           data-original="#000000"
           class=""
           id="path12" />
      </g>
    </g>
    <text
       xml:space="preserve"
       style="font-size:4.23333px;line-height:1.25;font-family:'Times New Roman';stroke-width:0.264583;-inkscape-font-specification:'Times New Roman, ';font-weight:normal;font-style:normal;font-stretch:normal;font-variant:normal;"
       x="101.29762"
       y="201.83928"
       id="text31"><tspan
         sodipodi:role="line"
         id="tspan29"
         x="101.29762"
         y="201.83928"
         style="stroke-width:0.264583;-inkscape-font-specification:'Times New Roman, ';font-family:'Times New Roman';font-weight:normal;font-style:normal;font-stretch:normal;font-variant:normal;" /></text>
    <text
       xml:space="preserve"
       style="font-style:normal;font-variant:normal;font-weight:normal;font-stretch:normal;font-size:4.23333px;line-height:1.25;font-family:'Times New Roman';-inkscape-font-specification:'Times New Roman, ';stroke-width:0.264583"
       x="101.29762"
       y="207.8869"
       id="text35"><tspan
         sodipodi:role="line"
         id="tspan33"
         x="101.29762"
         y="207.8869"
         style="font-style:normal;font-variant:normal;font-weight:normal;font-stretch:normal;font-family:'Times New Roman';-inkscape-font-specification:'Times New Roman, ';stroke-width:0.264583" /></text>
    <text
       xml:space="preserve"
       id="text37"
       style="font-size:4.23333px;line-height:1.25;font-family:sans-serif;white-space:pre;shape-inside:url(#rect39);" />
    <text
       xml:space="preserve"
       style="font-size:36px;line-height:1.25;font-family:sans-serif;text-align:center;text-anchor:middle;stroke-width:0.264583"
       x="150.27808"
       y="250.44688"
       id="text55"><tspan
         sodipodi:role="line"
         id="tspan53"
         x="150.27808"
         y="250.44688"
         style="font-style:normal;font-variant:normal;font-weight:bold;font-stretch:normal;font-family:sans-serif;-inkscape-font-specification:'sans-serif Bold';text-align:center;text-anchor:middle;fill:#ff7300;fill-opacity:1;stroke-width:0.264583">FOOTWEAR</tspan></text>
  </g>
</svg>
